/vscmnt/brussel_pixiu_data/_data_brussel/112/vsc11236/PredSimResults/SUBJ04mtu3D/weighted-LRposFixed/expIG/worker_04.mot
version=1
nRows=4
nColumns=50
inDegrees=yes
endheader
                time	         pelvis_tilt	         pelvis_list	     pelvis_rotation	           pelvis_tx	           pelvis_ty	           pelvis_tz	       hip_flexion_r	     hip_adduction_r	      hip_rotation_r	        knee_angle_r	       ankle_angle_r	         mtp_angle_r	       hip_flexion_l	     hip_adduction_l	      hip_rotation_l	        knee_angle_l	       ankle_angle_l	         mtp_angle_l	    lumbar_extension	      lumbar_bending	     lumbar_rotation	 ercspn_r/activation	 intobl_r/activation	 extobl_r/activation	    abd_r/activation	    add_r/activation	hamstrings_r/activation	bifemsh_r/activation	glut_max_r/activation	iliopsoas_r/activation	rect_fem_r/activation	  vasti_r/activation	gastroc_r/activation	 soleus_r/activation	tib_ant_r/activation	 ercspn_l/activation	 intobl_l/activation	 extobl_l/activation	    abd_l/activation	    add_l/activation	hamstrings_l/activation	bifemsh_l/activation	glut_max_l/activation	iliopsoas_l/activation	rect_fem_l/activation	  vasti_l/activation	gastroc_l/activation	 soleus_l/activation	tib_ant_l/activation	
          1.37963498	         -6.18580066	         -4.84071523	         12.56249942	          1.24167148	          0.88170502	         -0.02189156	         25.61147545	          0.11632153	         -5.18801957	          2.22855242	          5.50986238	          0.21732286	         -7.76461998	         -4.20757416	         15.20860458	         -8.65654712	         12.18716965	         24.13413555	         -2.39634903	          1.82818628	         -1.84596464	          0.09683144	          0.16951707	          0.01992238	          0.02262762	          0.11116775	          0.02700868	          0.01000000	          0.00999999	          0.05738348	          0.01373835	          0.01860589	          0.00999999	          0.00999999	          0.27189032	          0.03960095	          0.00999999	          0.00999999	          0.08213775	          0.00999999	          0.01923015	          0.14150813	          0.07922019	          0.33320033	          0.00999999	          0.00999999	          0.31245891	          0.29934344	          0.01512749	
          1.39343133	         -6.30584553	         -4.71800035	         12.46415452	          1.25699889	          0.87975176	         -0.02082006	         25.30306288	          0.38395188	         -4.10463450	          1.50637546	          5.12474460	          0.22212996	         -8.00968228	         -4.07841124	         14.42707167	         -9.96208795	         11.93916751	         25.85456014	         -2.09109118	          2.12773413	         -2.10236343	          0.07872864	          0.16154786	          0.01619786	          0.01839735	          0.14807699	          0.02690337	          0.00999999	          0.01269910	          0.04665554	          0.01116994	          0.01512749	          0.01714448	          0.01778539	          0.27452214	          0.06586837	          0.00999999	          0.00999999	          0.06678196	          0.02836635	          0.01827183	          0.11505295	          0.06440985	          0.30879416	          0.00999999	          0.00999999	          0.28858625	          0.29250354	          0.01229938	
          1.40722768	         -6.40684058	         -4.58744958	         12.29432231	          1.27273006	          0.87794850	         -0.01966417	         24.85457631	          0.65264208	         -3.04860905	          0.77017209	          4.69449458	          0.21451803	         -8.18602660	         -3.92153151	         13.60057327	        -11.48720982	         11.56865448	         27.62376074	         -1.76802344	          2.44399005	         -2.34704343	          0.06748525	          0.16797383	          0.01316964	          0.02576452	          0.12039375	          0.03230045	          0.04520526	          0.02864271	          0.03793321	          0.00999999	          0.01229938	          0.01393929	          0.01446038	          0.31475317	          0.08512023	          0.00999999	          0.00999999	          0.05429696	          0.04649262	          0.01563606	          0.09354361	          0.05236832	          0.27584315	          0.00999999	          0.00999999	          0.26251200	          0.27841174	          0.00999999	
          1.42102403	         -6.49003018	         -4.45676776	         12.04446079	          1.28864957	          0.87651240	         -0.01840548	         24.27748853	          0.94170739	         -2.06611782	          0.25919104	          4.12894145	          0.19921034	         -8.22399564	         -3.73395502	         12.72715583	        -13.31195535	         11.01052328	         29.43729333	         -1.44841474	          2.78567455	         -2.57677714	          0.07103157	          0.13769974	          0.01070756	          0.05588446	          0.09788594	          0.03624570	          0.03675406	          0.04453179	          0.03084154	          0.00999999	          0.00999999	          0.01133332	          0.01175699	          0.34264416	          0.10769971	          0.00999999	          0.00999999	          0.04414605	          0.04316487	          0.01633250	          0.07605548	          0.04257797	          0.23996742	          0.00999999	          0.00999999	          0.21864926	          0.25755836	          0.00999999	
